<svg width="30" height="34" viewBox="0 0 30 34" fill="none" xmlns="http://www.w3.org/2000/svg">
<path d="M29.0163 14.1165L15.7558 0.854021C14.9737 0.0738797 13.7086 0.0831101 12.9368 0.853024C12.1605 1.63124 12.1605 2.89482 12.9368 3.67204L26.1992 16.9336C26.9762 17.7105 28.2393 17.7105 29.0163 16.9336C29.7954 16.1545 29.7954 14.8954 29.0163 14.1165ZM11.953 5.50538L11.8532 6.00569C11.1501 9.52243 9.44148 12.8634 7.13047 15.5712L14.3453 22.7861C17.0528 20.4755 20.3478 18.721 23.8646 18.0171L24.3659 17.9173L11.953 5.50538ZM5.80773 17.0657L0.876863 21.9955C-0.288235 23.1606 -0.293083 25.0521 0.876863 26.2221L3.69395 29.0392C4.85905 30.2043 6.75056 30.209 7.92051 29.0392L12.8509 24.1088L5.80773 17.0657ZM6.51203 24.8136C6.12296 25.2027 5.49256 25.2027 5.10349 24.8136C4.71441 24.4245 4.71441 23.7941 5.10349 23.4051L6.51203 21.9965C6.90111 21.6074 7.5315 21.6074 7.92057 21.9965C8.30965 22.3856 8.30965 23.016 7.92057 23.4051L6.51203 24.8136ZM17.0099 29.5692L18.3649 28.2142C19.5349 27.0444 19.531 25.1529 18.3649 23.9887L17.3585 22.9815C16.8022 23.3552 16.271 23.7612 15.7545 24.1944L16.9564 25.3982C17.3445 25.7843 17.3473 26.4128 16.9564 26.8057L15.579 28.1831L13.5548 26.2219L10.7376 29.0392L15.257 33.4185C16.0282 34.1917 17.2945 34.1961 18.0731 33.4175C18.8503 32.6402 18.8503 31.3767 18.0731 30.5994L17.0099 29.5692ZM21.0339 -3.05176e-05C20.4834 -3.05176e-05 20.0379 0.445489 20.0379 0.996064V2.98825C20.0379 3.53883 20.4834 3.98435 21.0339 3.98435C21.5845 3.98435 22.03 3.53883 22.03 2.98825V0.996064C22.03 0.445489 21.5845 -3.05176e-05 21.0339 -3.05176e-05ZM29.0027 7.96872H27.0105C26.4599 7.96872 26.0144 8.41424 26.0144 8.96482C26.0144 9.51539 26.4599 9.96091 27.0105 9.96091H29.0027C29.5533 9.96091 29.9988 9.51539 29.9988 8.96482C29.9988 8.41424 29.5533 7.96872 29.0027 7.96872ZM27.7147 2.28395C27.3257 1.89487 26.6953 1.89487 26.3062 2.28395L24.314 4.27613C23.9249 4.66521 23.9249 5.2956 24.314 5.68468C24.7031 6.07375 25.3335 6.07382 25.7226 5.68468L27.7147 3.69249C28.1038 3.30342 28.1038 2.67302 27.7147 2.28395Z" fill="#070707"/>
</svg>
