<svg width="50" height="36" viewBox="0 0 50 36" fill="none" xmlns="http://www.w3.org/2000/svg">
<path d="M10.1562 35.9688C10.0823 35.968 10.0087 35.9575 9.9375 35.9375C9.77522 35.8902 9.63267 35.7915 9.53125 35.6562C9.42983 35.521 9.375 35.3565 9.375 35.1875V20.0039H0.78125C0.57405 20.0039 0.375336 19.9216 0.228823 19.7751C0.08231 19.6286 0 19.4299 0 19.2227V0.8125C0 0.6053 0.08231 0.406586 0.228823 0.260073C0.375336 0.11356 0.57405 0.03125 0.78125 0.03125H20.3125C20.5197 0.03125 20.7184 0.11356 20.8649 0.260073C21.0114 0.406586 21.0938 0.6053 21.0938 0.8125V19.207C21.0938 19.355 21.0518 19.5 20.9727 19.625L10.8164 35.6055C10.7459 35.7168 10.6484 35.8084 10.533 35.872C10.4176 35.9355 10.288 35.9688 10.1562 35.9688ZM1.5625 18.4258H10.1562C10.3635 18.4258 10.5622 18.5081 10.7087 18.6546C10.8552 18.8011 10.9375 18.9998 10.9375 19.207V32.4883L19.5312 18.9766V1.59375H1.5625V18.4258ZM39.0625 35.9688C38.9885 35.968 38.915 35.9575 38.8438 35.9375C38.6815 35.8902 38.5389 35.7915 38.4375 35.6562C38.3361 35.521 38.2812 35.3565 38.2812 35.1875V20.0039H29.6875C29.4803 20.0039 29.2816 19.9216 29.1351 19.7751C28.9886 19.6286 28.9062 19.4299 28.9062 19.2227V0.8125C28.9062 0.6053 28.9886 0.406586 29.1351 0.260073C29.2816 0.11356 29.4803 0.03125 29.6875 0.03125H49.2188C49.4259 0.03125 49.6247 0.11356 49.7712 0.260073C49.9177 0.406586 50 0.6053 50 0.8125V19.207C50 19.355 49.958 19.5 49.8789 19.625L39.7227 35.6055C39.6522 35.7168 39.5547 35.8084 39.4393 35.872C39.3238 35.9355 39.1942 35.9688 39.0625 35.9688ZM30.4688 18.4258H39.0625C39.2697 18.4258 39.4684 18.5081 39.6149 18.6546C39.7614 18.8011 39.8438 18.9998 39.8438 19.207V32.4883L48.4375 18.9766V1.59375H30.4688V18.4258Z" fill="#070707"/>
</svg>
