<svg width="26" height="26" viewBox="0 0 26 26" fill="none" xmlns="http://www.w3.org/2000/svg">
<g clip-path="url(#clip0_4209_106)">
<path d="M13 0C5.82045 0 0 5.82045 0 13C0 20.1796 5.82045 26 13 26C20.1796 26 26 20.1796 26 13C26 5.82045 20.1796 0 13 0ZM13 23.8333C7.01705 23.8333 2.16668 18.9829 2.16668 13C2.16668 7.01705 7.01705 2.16668 13 2.16668C18.9829 2.16668 23.8333 7.01705 23.8333 13C23.8333 18.9829 18.9829 23.8333 13 23.8333Z" fill="#FCDB66"/>
<path d="M11.5994 6.81729C11.1763 6.39424 10.4904 6.39424 10.0673 6.81729C9.64424 7.24035 9.64424 7.9263 10.0673 8.34936L14.7179 13L10.0673 17.6507C9.64424 18.0737 9.64424 18.7597 10.0673 19.1827C10.4904 19.6058 11.1763 19.6058 11.5994 19.1827L17.016 13.766C17.4391 13.343 17.4391 12.657 17.016 12.234L11.5994 6.81729Z" fill="#FCDB66"/>
</g>
<defs>
<clipPath id="clip0_4209_106">
<rect width="26" height="26" fill="white"/>
</clipPath>
</defs>
</svg>
